<?xml version="1.0" encoding="UTF-8" standalone="no"?>
<!-- Created with Inkscape (http://www.inkscape.org/) -->

<svg
   xmlns:dc="http://purl.org/dc/elements/1.1/"
   xmlns:cc="http://creativecommons.org/ns#"
   xmlns:rdf="http://www.w3.org/1999/02/22-rdf-syntax-ns#"
   xmlns:svg="http://www.w3.org/2000/svg"
   xmlns="http://www.w3.org/2000/svg"
   xmlns:xlink="http://www.w3.org/1999/xlink"
   xmlns:sodipodi="http://sodipodi.sourceforge.net/DTD/sodipodi-0.dtd"
   xmlns:inkscape="http://www.inkscape.org/namespaces/inkscape"
   width="383.15485"
   height="98.624184"
   id="svg4523"
   version="1.1"
   inkscape:version="0.92.1 r15371"
   sodipodi:docname="SFD_logo.svg">
  <defs
     id="defs4525">
    <linearGradient
       inkscape:collect="always"
       xlink:href="#SVGID_33_"
       id="linearGradient24732"
       gradientUnits="userSpaceOnUse"
       x1="1150.4614"
       y1="938.66803"
       x2="1270.4927"
       y2="938.66803"
       gradientTransform="scale(1.0666667)" />
    <linearGradient
       id="SVGID_33_"
       gradientUnits="userSpaceOnUse"
       x1="1150.4614"
       y1="938.66803"
       x2="1270.4927"
       y2="938.66803">
      <stop
         offset="0"
         style="stop-color:#F7EC30"
         id="stop354" />
      <stop
         offset="1"
         style="stop-color:#FAAE40"
         id="stop356" />
    </linearGradient>
    <linearGradient
       inkscape:collect="always"
       xlink:href="#SVGID_34_"
       id="linearGradient24734"
       gradientUnits="userSpaceOnUse"
       x1="1150.4614"
       y1="898.42291"
       x2="1270.4927"
       y2="898.42291"
       gradientTransform="scale(1.0666667)" />
    <linearGradient
       id="SVGID_34_"
       gradientUnits="userSpaceOnUse"
       x1="1150.4614"
       y1="898.42291"
       x2="1270.4927"
       y2="898.42291">
      <stop
         offset="0"
         style="stop-color:#F7EC30"
         id="stop363" />
      <stop
         offset="1"
         style="stop-color:#FAAE40"
         id="stop365" />
    </linearGradient>
  </defs>
  <sodipodi:namedview
     id="base"
     pagecolor="#ffffff"
     bordercolor="#666666"
     borderopacity="1.0"
     inkscape:pageopacity="0.0"
     inkscape:pageshadow="2"
     inkscape:zoom="0.35"
     inkscape:cx="182.5775"
     inkscape:cy="78.645433"
     inkscape:document-units="px"
     inkscape:current-layer="layer1"
     showgrid="false"
     inkscape:window-width="523"
     inkscape:window-height="497"
     inkscape:window-x="0"
     inkscape:window-y="75"
     inkscape:window-maximized="0"
     fit-margin-top="0"
     fit-margin-left="0"
     fit-margin-right="0"
     fit-margin-bottom="0" />
  <metadata
     id="metadata4528">
    <rdf:RDF>
      <cc:Work
         rdf:about="">
        <dc:format>image/svg+xml</dc:format>
        <dc:type
           rdf:resource="http://purl.org/dc/dcmitype/StillImage" />
        <dc:title></dc:title>
      </cc:Work>
    </rdf:RDF>
  </metadata>
  <g
     inkscape:label="Layer 1"
     inkscape:groupmode="layer"
     id="layer1"
     transform="translate(-192.4225,-582.5409)">
    <g
       id="g277"
       transform="matrix(0.52734688,0,0,0.52734688,-444.3209,141.78195)"
       inkscape:export-filename="/home/pockey/Documents/SFD/sfd-logo.png"
       inkscape:export-xdpi="100.22"
       inkscape:export-ydpi="100.22">
      <g
         transform="translate(21.076204,-13.172627)"
         id="g279">
        <g
           id="g281">
          <path
             d="m 1241.7259,898.73387 c 0,0 7.9957,10.06506 6.0874,-0.24427 -1.9104,-10.30827 -17.2021,-30.4544 -24.9066,-25.57867 -7.7088,4.87467 -3.8123,8.89174 1.0272,11.4816 4.8437,2.58987 14.385,9.15414 17.792,14.34134 z"
             id="path283"
             inkscape:connector-curvature="0"
             style="fill:#f9d523;stroke-width:1.06666672" />
          <path
             d="m 1282.3861,883.09867 c 0,0 -1.5893,13.62133 4.7691,4.41493 6.352,-9.20427 10.0672,-35.93493 0.5813,-38.08533 -9.488,-2.15467 -9.5893,3.81013 -7.9018,9.41866 1.6885,5.60854 3.9093,17.76854 2.5514,24.25174 z"
             id="path285"
             inkscape:connector-curvature="0"
             style="fill:#f9d523;stroke-width:1.06666672" />
          <path
             d="m 1327.2939,887.82187 c 0,0 -10.1792,12.47893 1.9253,7.38346 12.1045,-5.10186 32.6688,-29.21706 24.6336,-37.34186 -8.0331,-8.12054 -11.904,-2.27947 -13.7707,4.3392 -1.873,6.6208 -7.3546,20.05866 -12.7882,25.6192 z"
             id="path287"
             inkscape:connector-curvature="0"
             style="fill:#f9d523;stroke-width:1.06666672" />
          <path
             d="m 1359.8005,920.17813 c 0,0 -15.9061,4.41494 -2.7584,7.31627 13.1478,2.896 44.6294,-5.10613 42.719,-16.6624 -1.9083,-11.55627 -8.608,-8.95787 -14.0939,-4.5248 -5.4859,4.43093 -18.0267,12.43307 -25.8667,13.87093 z"
             id="path289"
             inkscape:connector-curvature="0"
             style="fill:#f9d523;stroke-width:1.06666672" />
          <path
             d="m 1216.1301,929.42187 c 0,0 10.5728,3.51466 4.2955,-3.06027 -6.2752,-6.5792 -26.9333,-13.94347 -30.2101,-6.7456 -3.279,7.1936 1.4496,8.256 6.1962,7.83787 4.7392,-0.41707 14.783,-0.17814 19.7184,1.968 z"
             id="path291"
             inkscape:connector-curvature="0"
             style="fill:#f9d523;stroke-width:1.06666672" />
          <path
             d="m 1208.6112,963.37387 c 0,0 8.9184,-0.4192 2.3317,-3.53174 -6.592,-3.10826 -24.1664,-2.6688 -24.5461,3.65867 -0.3797,6.32747 3.4688,5.75787 6.8939,4.08107 3.424,-1.68107 11.0058,-4.3936 15.3205,-4.208 z"
             id="path293"
             inkscape:connector-curvature="0"
             style="fill:#f9d523;stroke-width:1.06666672" />
          <path
             d="m 1216.4363,993.32587 c 0,0 5.2874,-4.56854 -0.271,-3.3024 -5.5541,1.26826 -16.1621,10.02453 -13.3397,14.10663 2.8149,4.079 4.9141,1.8731 6.2123,-0.8149 1.3002,-2.6891 4.6517,-8.02027 7.3984,-9.98933 z"
             id="path295"
             inkscape:connector-curvature="0"
             style="fill:#f9d523;stroke-width:1.06666672" />
        </g>
      </g>
      <path
         d="m 1276.8042,936.55964 c 8.0682,-19.27254 30.4192,-28.27947 49.9232,-20.112 4.5525,1.90186 8.5354,4.5856 11.8837,7.808 -3.952,-4.38934 -8.9184,-8.00214 -14.7392,-10.4416 -20.8437,-8.72534 -44.7296,0.90026 -53.3525,21.4976 -6.1291,14.64213 -2.8918,30.88106 6.977,42.1856 0.975,-1.72907 1.9787,-3.43574 3.0187,-5.11467 -6.976,-10.25387 -8.816,-23.6288 -3.7109,-35.82293 z"
         id="path297"
         inkscape:connector-curvature="0"
         style="fill:none;stroke-width:1.06666672" />
      <path
         d="m 1450.193,920.9223 c 1.2352,0 2.4725,-0.1024 3.712,-0.30826 1.2352,-0.20374 2.337,-0.56854 3.3066,-1.09547 0.9686,-0.5248 1.7622,-1.2704 2.3808,-2.23573 0.6166,-0.96214 0.9291,-2.20374 0.9291,-3.7248 0,-1.16907 -0.2976,-2.17707 -0.8896,-3.02507 -0.5941,-0.84587 -1.3461,-1.62133 -2.2581,-2.32107 -0.9163,-0.70186 -1.9371,-1.344 -3.0667,-1.9296 -1.1317,-0.58346 -2.2603,-1.22666 -3.3899,-1.9296 -1.4538,-0.93333 -2.8245,-1.9296 -4.1141,-2.9792 -1.2917,-1.05173 -2.3936,-2.23573 -3.3109,-3.54986 -0.9142,-1.31627 -1.6395,-2.77547 -2.1771,-4.38294 -0.5397,-1.60853 -0.8064,-3.4624 -0.8064,-5.56693 0,-2.688 0.4704,-5.18507 1.4101,-7.49547 0.9419,-2.30613 2.3414,-4.30826 4.1963,-6.00426 1.856,-1.69387 4.1835,-3.02294 6.9813,-3.9872 2.7958,-0.96427 6.079,-1.44534 9.8443,-1.44534 1.7205,0 3.3899,0.16 5.0037,0.48107 1.6139,0.32107 3.1168,0.7168 4.5163,1.18293 1.3984,0.46827 2.6773,1.008 3.8336,1.6224 1.1563,0.61227 2.1397,1.2128 2.944,1.79627 l -5.2437,10.08107 c -1.344,-1.1104 -2.9835,-2.04587 -4.9206,-2.8064 -1.937,-0.7584 -4.0352,-1.1392 -6.2933,-1.1392 -1.2395,0 -2.4213,0.1184 -3.552,0.352 -1.1296,0.2336 -2.1248,0.62933 -2.9856,1.18293 -0.8608,0.55573 -1.5456,1.2704 -2.0565,2.14827 -0.512,0.87466 -0.767,1.9584 -0.767,3.2416 0,1.1712 0.2006,2.14826 0.6038,2.9376 0.4042,0.7872 0.929,1.47733 1.5733,2.0608 0.6453,0.58346 1.3995,1.1104 2.2603,1.5776 0.8608,0.4672 1.7749,0.96426 2.7434,1.48906 1.6662,0.93547 3.2811,1.9296 4.8416,2.98134 1.5584,1.05173 2.9291,2.26453 4.1163,3.63733 1.1808,1.37493 2.1227,2.93547 2.8224,4.68907 0.6976,1.75466 1.0475,3.8272 1.0475,6.22293 0,3.3312 -0.5643,6.22507 -1.6939,8.67947 -1.1296,2.4544 -2.7168,4.50026 -4.7605,6.13546 -2.0459,1.63734 -4.479,2.85014 -7.3046,3.63734 -2.8224,0.78933 -5.9562,1.18293 -9.3994,1.18293 -2.2582,0 -4.3712,-0.20373 -6.335,-0.61227 -1.9626,-0.41066 -3.7376,-0.89173 -5.3226,-1.44533 -1.5894,-0.55573 -2.96,-1.15413 -4.1163,-1.7984 -1.1584,-0.64213 -2.0853,-1.22667 -2.7829,-1.75253 l 5.3248,-10.43307 c 0.6453,0.46827 1.425,0.96427 2.3392,1.4912 0.9141,0.5248 1.9498,1.02293 3.1061,1.48907 1.1563,0.46826 2.3808,0.86293 3.6725,1.18293 1.2918,0.32427 2.6379,0.48533 4.0374,0.48533 z"
         id="path299"
         inkscape:connector-curvature="0"
         style="fill:#f9d523;stroke-width:1.06666672" />
      <path
         d="m 1494.0479,932.31644 c -2.8523,0 -5.3269,-0.4672 -7.4229,-1.4016 -2.0982,-0.93334 -3.8336,-2.2496 -5.2064,-3.9456 -1.3707,-1.69174 -2.4086,-3.69387 -3.104,-6.00427 -0.6998,-2.30613 -1.0518,-4.86507 -1.0518,-7.66827 0,-3.50613 0.527,-7.01226 1.5755,-10.5184 1.0485,-3.50613 2.5963,-6.6624 4.64,-9.46666 2.0437,-2.8064 4.5461,-5.0976 7.504,-6.8832 2.9579,-1.78134 6.3477,-2.67307 10.1685,-2.67307 2.7936,0 5.2566,0.46827 7.3814,1.40373 2.1248,0.93547 3.873,2.2496 5.2458,3.94347 1.3707,1.696 2.4064,3.696 3.1062,6.00427 0.6976,2.3104 1.0474,4.86506 1.0474,7.6704 0,3.50613 -0.5109,7.01226 -1.5338,10.5184 -1.0208,3.50613 -2.5291,6.6624 -4.5184,9.46666 -1.9894,2.8064 -4.4768,5.09974 -7.4624,6.88107 -2.9856,1.78133 -6.4427,2.67307 -10.3691,2.67307 z m 5.9701,-37.5168 c -1.7749,0 -3.3354,0.55573 -4.6794,1.66506 -1.3483,1.11254 -2.4768,2.51414 -3.3899,4.208 -0.9141,1.696 -1.6021,3.54987 -2.0565,5.56694 -0.4608,2.01706 -0.688,3.93173 -0.688,5.74186 0,2.9792 0.4288,5.27467 1.2917,6.88107 0.8608,1.6064 2.4213,2.41067 4.6816,2.41067 1.7728,0 3.3333,-0.55574 4.6773,-1.66614 1.3462,-1.10826 2.4747,-2.51093 3.392,-4.20586 0.912,-1.696 1.6,-3.552 2.0566,-5.56694 0.4565,-2.01706 0.6858,-3.9296 0.6858,-5.74186 0,-2.98134 -0.4288,-5.27254 -1.2896,-6.88107 -0.8629,-1.60747 -2.4234,-2.41173 -4.6816,-2.41173 z"
         id="path301"
         inkscape:connector-curvature="0"
         style="fill:#f9d523;stroke-width:1.06666672" />
      <path
         d="m 1560.3647,873.49724 12.5088,-2.1024 -3.0667,13.5872 h 15.1254 l -2.4214,10.6912 h -15.0442 l -3.5499,16.1312 c -0.3232,1.344 -0.5248,2.60053 -0.6059,3.76853 -0.081,1.168 0.052,2.17707 0.4043,3.02507 0.3499,0.84586 0.9547,1.504 1.8165,1.9712 0.8587,0.46826 2.0416,0.70186 3.5499,0.70186 1.2896,0 2.5419,-0.1312 3.7504,-0.39573 1.2128,-0.2624 2.4331,-0.6272 3.6725,-1.09547 l 0.8875,9.9936 c -1.6149,0.64427 -3.3621,1.19787 -5.2437,1.66507 -1.8859,0.46827 -4.1163,0.70187 -6.6976,0.70187 -3.712,0 -6.592,-0.59947 -8.6358,-1.79627 -2.0437,-1.19787 -3.4954,-2.8352 -4.3562,-4.91093 -0.8608,-2.07254 -1.2374,-4.4544 -1.1296,-7.14347 0.1066,-2.688 0.4832,-5.5232 1.1296,-8.5024 z"
         id="path303"
         inkscape:connector-curvature="0"
         style="fill:#f9d523;stroke-width:1.06666672" />
      <path
         d="m 1609.5146,904.09137 c -1.0251,2.39787 -2.1664,4.8352 -3.4294,7.3184 -1.265,2.48533 -2.5578,4.91093 -3.8752,7.2768 -1.3184,2.36693 -2.5962,4.61653 -3.8314,6.74773 -1.2395,2.13547 -2.3392,4.0192 -3.3088,5.6544 h -9.3622 c -0.4288,-2.4544 -0.8725,-5.37493 -1.329,-8.7648 -0.4587,-3.38986 -0.9024,-7.08586 -1.3334,-11.08906 -0.4309,-4.00214 -0.8213,-8.24 -1.169,-12.7104 -0.352,-4.4704 -0.6038,-8.9856 -0.767,-13.54134 h 11.7814 c 0,2.1024 0.013,4.3808 0.039,6.8352 0.027,2.45654 0.081,4.9984 0.16,7.62667 0.081,2.63147 0.2016,5.31627 0.3648,8.06507 0.16,2.74773 0.3755,5.46453 0.6443,8.15253 1.3461,-2.4544 2.6773,-5.01013 3.9957,-7.6704 1.3163,-2.65813 2.5814,-5.31627 3.792,-7.9776 1.2107,-2.65813 2.3392,-5.27253 3.3899,-7.84427 1.0475,-2.57066 1.9755,-4.9664 2.7851,-7.1872 h 10.0042 c 0,4.20587 0.066,8.91094 0.2016,14.112 0.1334,5.20214 0.4704,10.7232 1.008,16.5664 1.4539,-2.62933 2.7958,-5.33333 4.0352,-8.1088 1.2374,-2.77546 2.3787,-5.50826 3.4294,-8.19626 1.0474,-2.688 1.9893,-5.25867 2.8224,-7.71414 0.8352,-2.4544 1.5733,-4.6752 2.2186,-6.66026 h 12.752 c -1.0773,2.92053 -2.3541,6.208 -3.8336,9.86026 -1.4794,3.65227 -3.1872,7.49334 -5.1232,11.52747 -1.937,4.03093 -4.1184,8.15253 -6.5376,12.36053 -2.4213,4.20587 -5.1125,8.32747 -8.0704,12.3584 h -9.3578 c -0.6475,-4.78933 -1.1318,-9.3792 -1.4518,-13.76213 -0.3242,-4.38187 -0.5386,-8.7936 -0.6442,-13.2352 z"
         id="path305"
         inkscape:connector-curvature="0"
         style="fill:#f9d523;stroke-width:1.06666672" />
      <path
         d="m 1677.0452,911.1911 c -0.7541,3.3312 -0.9685,6.67734 -0.6453,10.03734 0.3232,3.36 0.9397,6.35413 1.856,8.98346 l -10.7317,1.66614 c -0.3232,-0.70187 -0.6208,-1.3728 -0.8875,-2.01707 -0.2709,-0.64213 -0.5397,-1.3728 -0.8085,-2.192 -1.5062,1.34613 -3.1755,2.4544 -5.0016,3.3312 -1.8294,0.8768 -3.8731,1.31413 -6.1334,1.31413 -2.689,0 -4.9898,-0.512 -6.8981,-1.53386 -1.9104,-1.0208 -3.4709,-2.39574 -4.6816,-4.1184 -1.2107,-1.7248 -2.0853,-3.74187 -2.6229,-6.05014 -0.5376,-2.30826 -0.8064,-4.7776 -0.8064,-7.40586 0,-4.03307 0.6581,-7.83147 1.9776,-11.39627 1.3194,-3.5648 3.1477,-6.6752 5.488,-9.33547 2.3392,-2.65813 5.0954,-4.74773 8.2709,-6.26666 3.1733,-1.52107 6.6165,-2.27947 10.3275,-2.27947 0.4832,0 1.3333,0.0288 2.5418,0.0875 1.2107,0.0587 2.5963,0.18986 4.1558,0.3936 1.5605,0.20586 3.2021,0.54186 4.9205,1.008 1.7227,0.46826 3.3621,1.1104 4.9248,1.9296 z m -8.3914,-16.12906 c -0.6998,-0.11627 -1.3334,-0.20374 -1.8955,-0.2624 -0.5664,-0.0587 -1.2501,-0.0875 -2.0587,-0.0875 -1.8293,0 -3.537,0.49813 -5.1232,1.48907 -1.5893,0.99413 -2.9749,2.29333 -4.1557,3.90186 -1.1829,1.60854 -2.112,3.46027 -2.7851,5.5648 -0.673,2.10454 -1.008,4.29547 -1.008,6.57494 0,2.80426 0.431,5.0272 1.2918,6.6624 0.8608,1.6352 2.4458,2.4544 4.7605,2.4544 1.2373,0 2.352,-0.2624 3.3504,-0.78934 0.9941,-0.5248 2.0587,-1.4016 3.1851,-2.62933 0.1088,-1.46027 0.2837,-2.99627 0.5248,-4.6016 0.2442,-1.6064 0.4981,-3.0816 0.769,-4.42667 z"
         id="path307"
         inkscape:connector-curvature="0"
         style="fill:#f9d523;stroke-width:1.06666672" />
      <path
         d="m 1713.4452,896.20124 c -1.0794,-0.2912 -2.1397,-0.56854 -3.1872,-0.83094 -1.0496,-0.26453 -2.5984,-0.39573 -4.6421,-0.39573 -0.7541,0 -1.5851,0.0747 -2.5003,0.21867 -0.9141,0.14826 -1.6661,0.30826 -2.2602,0.48106 l -7.8251,35.4144 h -12.0224 l 9.6832,-43.65226 c 2.3104,-0.8192 4.9067,-1.59147 7.7856,-2.3232 2.8747,-0.73174 6.1163,-1.09547 9.7227,-1.09547 1.344,0 2.8352,0.1312 4.4789,0.3936 1.6395,0.2624 3.0795,0.688 4.3147,1.2704 z"
         id="path309"
         inkscape:connector-curvature="0"
         style="fill:#f9d523;stroke-width:1.06666672" />
      <path
         d="m 1712.898,913.03217 c 0,-3.73973 0.6038,-7.36427 1.8144,-10.8704 1.2107,-3.50613 2.9163,-6.61867 5.1232,-9.33547 2.207,-2.7168 4.8832,-4.9088 8.0288,-6.5728 3.1478,-1.66613 6.6294,-2.50026 10.4523,-2.50026 1.8795,0 3.6288,0.29333 5.2437,0.8768 1.6128,0.5856 3.0251,1.4336 4.2358,2.54186 1.2106,1.1104 2.1504,2.4704 2.8224,4.0768 0.673,1.60854 1.0101,3.4336 1.0101,5.47947 0,3.27253 -0.6752,6.048 -2.0192,8.32747 -1.344,2.27733 -3.2149,4.13333 -5.6064,5.5648 -2.3936,1.4336 -5.2331,2.4704 -8.5141,3.11253 -3.2811,0.64427 -6.8566,0.96427 -10.7318,0.96427 0.3776,2.4544 1.1979,4.19413 2.4608,5.21706 1.2651,1.02294 3.2683,1.53387 6.0128,1.53387 1.7206,0 3.471,-0.16 5.2438,-0.4832 1.777,-0.31893 3.4421,-0.80213 5.0016,-1.44533 l 0.8896,10.256 c -1.5083,0.64426 -3.4294,1.22666 -5.7707,1.75466 -2.3371,0.5248 -4.8789,0.7872 -7.6245,0.7872 -3.3355,0 -6.1462,-0.512 -8.431,-1.53386 -2.288,-1.0208 -4.144,-2.41067 -5.5669,-4.16214 -1.4272,-1.75466 -2.4629,-3.79946 -3.1083,-6.1376 -0.6453,-2.33813 -0.9664,-4.8224 -0.9664,-7.45173 z m 23.4784,-18.93333 c -2.7413,0 -5.1498,1.06666 -7.2213,3.19786 -2.0725,2.13334 -3.4293,4.95254 -4.0747,8.4608 3.3355,-0.11626 6.0246,-0.42453 8.0683,-0.92053 2.0437,-0.496 3.6331,-1.09547 4.7605,-1.7984 1.1296,-0.70187 1.8838,-1.46027 2.2603,-2.27947 0.3755,-0.81706 0.5643,-1.6352 0.5643,-2.4544 0,-2.8032 -1.4507,-4.20586 -4.3574,-4.20586 z"
         id="path311"
         inkscape:connector-curvature="0"
         style="fill:#f9d523;stroke-width:1.06666672" />
      <g
         transform="translate(21.076204,-13.172627)"
         id="g313">
        <polygon
           points="1421.684,852.044 1421.512,852.827 1421.686,852.044 "
           id="polygon315"
           style="fill:#f9d523"
           transform="scale(1.0666667)" />
        <polygon
           points="1437.192,842.021 1427.333,842.021 1425.147,852.044 1434.922,852.044 "
           id="polygon317"
           style="fill:#f15a24"
           transform="scale(1.0666667)" />
        <path
           d="m 1535.6277,877.072 c -1.8037,-0.55467 -3.9146,-0.83093 -6.3349,-0.83093 -6.3477,0 -11.2704,1.696 -14.7669,5.08373 -3.4976,3.38987 -5.919,8.18133 -7.263,14.37547 l -8.3893,38.21866 c -0.4331,2.048 -0.9835,4.25174 -1.6565,6.61867 -0.4768,1.6768 -1.0443,3.32053 -1.6544,4.95253 h 12.0789 c 1.3707,-3.93386 2.6731,-8.68373 3.8997,-14.288 l 4.6795,-21.25866 0.059,-0.26027 0.1834,-0.8352 v 0 l 2.3627,-10.6912 h -0.024 l 0.4832,-2.2816 c 0.5376,-2.4544 1.521,-4.49813 2.9461,-6.13547 1.4229,-1.6352 3.6192,-2.4544 6.5749,-2.4544 1.0774,0 2.2454,0.1312 3.5104,0.39574 1.2651,0.2624 2.3808,0.656 3.3504,1.18293 l 4.0331,-10.256 c -0.9152,-0.46933 -2.272,-0.98027 -4.0736,-1.536 z"
           id="path319"
           inkscape:connector-curvature="0"
           style="fill:#f9d523;stroke-width:1.06666672" />
      </g>
      <g
         transform="translate(21.076204,-13.172627)"
         id="g321">
        <path
           d="m 1454.4672,1019.4283 13.3941,-60.74563 h 36.2315 l -2.5813,11.3088 h -23.6448 l -2.8246,12.9728 h 20.9003 l -2.5003,11.3088 h -20.9002 l -5.5691,25.15623 h -12.5056 z"
           id="path323"
           inkscape:connector-curvature="0"
           style="fill:#f9d523;stroke-width:1.06666672" />
        <path
           d="m 1527.7504,984.5408 c -1.0773,-0.2912 -2.1376,-0.56853 -3.1872,-0.83093 -1.0496,-0.26454 -2.5963,-0.39574 -4.64,-0.39574 -0.7541,0 -1.5872,0.0747 -2.5024,0.21867 -0.9141,0.14827 -1.6661,0.30827 -2.2603,0.4832 l -7.825,35.4123 h -12.0224 l 9.6832,-43.6523 c 2.3125,-0.81707 4.9066,-1.59147 7.7856,-2.3232 2.8768,-0.73173 6.1184,-1.09547 9.7226,-1.09547 1.344,0 2.8374,0.1312 4.479,0.3936 1.6394,0.2624 3.0794,0.688 4.3168,1.2704 z"
           id="path325"
           inkscape:connector-curvature="0"
           style="fill:#f9d523;stroke-width:1.06666672" />
        <path
           d="m 1527.2021,1001.3717 c 0,-3.7397 0.6038,-7.36423 1.8144,-10.87037 1.2107,-3.50613 2.9163,-6.61653 5.1254,-9.33546 2.2037,-2.7168 4.881,-4.9088 8.0266,-6.5728 3.1478,-1.66614 6.6294,-2.49814 10.4523,-2.49814 1.8816,0 3.6288,0.2912 5.2437,0.87467 1.615,0.5856 3.0272,1.4336 4.24,2.544 1.2086,1.1104 2.1483,2.46827 2.8224,4.07467 0.671,1.60853 1.008,3.4336 1.008,5.47946 0,3.27254 -0.673,6.048 -2.0192,8.32747 -1.344,2.27947 -3.2149,4.13547 -5.6085,5.56693 -2.3936,1.43147 -5.2309,2.46827 -8.512,3.11257 -3.2832,0.6421 -6.8608,0.9621 -10.7328,0.9621 0.3776,2.4544 1.1979,4.1941 2.4629,5.2171 1.263,1.0229 3.2662,1.5338 6.0107,1.5338 1.7227,0 3.4709,-0.16 5.2437,-0.481 1.7771,-0.3211 3.4443,-0.8022 5.0038,-1.4475 l 0.8874,10.256 c -1.5061,0.6443 -3.4293,1.2267 -5.7685,1.7547 -2.3392,0.5248 -4.8811,0.7872 -7.6245,0.7872 -3.3355,0 -6.1462,-0.512 -8.4331,-1.5339 -2.2869,-1.0219 -4.1419,-2.4107 -5.5669,-4.1621 -1.4272,-1.7547 -2.4608,-3.7984 -3.1062,-6.1355 -0.6485,-2.3392 -0.9696,-4.8245 -0.9696,-7.4539 z m 23.4795,-18.9333 c -2.7413,0 -5.152,1.06667 -7.2192,3.19787 -2.0725,2.13546 -3.4293,4.95466 -4.0768,8.4608 3.3355,-0.11627 6.0245,-0.42454 8.0704,-0.92054 2.0416,-0.496 3.6309,-1.09546 4.7584,-1.7984 1.1317,-0.69973 1.8837,-1.46026 2.2603,-2.27946 0.3754,-0.81707 0.5642,-1.6352 0.5642,-2.4544 0,-2.8032 -1.4485,-4.20587 -4.3573,-4.20587 z"
           id="path327"
           inkscape:connector-curvature="0"
           style="fill:#f9d523;stroke-width:1.06666672" />
        <path
           d="m 1566.0885,1001.3717 c 0,-3.7397 0.6038,-7.36423 1.8144,-10.87037 1.2107,-3.50613 2.9163,-6.61653 5.1232,-9.33546 2.2059,-2.7168 4.8854,-4.9088 8.0288,-6.5728 3.1478,-1.66614 6.6315,-2.49814 10.4523,-2.49814 1.8816,0 3.6288,0.2912 5.2437,0.87467 1.615,0.5856 3.0251,1.4336 4.2379,2.544 1.2085,1.1104 2.1483,2.46827 2.8224,4.07467 0.6709,1.60853 1.008,3.4336 1.008,5.47946 0,3.27254 -0.6731,6.048 -2.0192,8.32747 -1.344,2.27947 -3.2128,4.13547 -5.6064,5.56693 -2.3936,1.43147 -5.2309,2.46827 -8.512,3.11257 -3.2832,0.6421 -6.8587,0.9621 -10.7328,0.9621 0.3776,2.4544 1.1979,4.1941 2.4629,5.2171 1.263,1.0229 3.2662,1.5338 6.0107,1.5338 1.7205,0 3.4709,-0.16 5.2459,-0.481 1.7749,-0.3211 3.4421,-0.8022 5.0016,-1.4475 l 0.8874,10.256 c -1.5061,0.6443 -3.4293,1.2267 -5.7685,1.7547 -2.3392,0.5248 -4.8811,0.7872 -7.6245,0.7872 -3.3355,0 -6.1462,-0.512 -8.431,-1.5339 -2.289,-1.0208 -4.144,-2.4107 -5.569,-4.1621 -1.4272,-1.7547 -2.463,-3.7984 -3.1083,-6.1355 -0.6453,-2.3371 -0.9675,-4.8245 -0.9675,-7.4539 z m 23.4806,-18.9333 c -2.7435,0 -5.152,1.06667 -7.2224,3.19787 -2.0704,2.13546 -3.4294,4.95466 -4.0747,8.4608 3.3355,-0.11627 6.0245,-0.42454 8.0704,-0.92054 2.0416,-0.496 3.6309,-1.09546 4.7584,-1.7984 1.1317,-0.69973 1.8837,-1.46026 2.2603,-2.27946 0.3754,-0.81707 0.5664,-1.6352 0.5664,-2.4544 0,-2.8032 -1.4539,-4.20587 -4.3584,-4.20587 z"
           id="path329"
           inkscape:connector-curvature="0"
           style="fill:#f9d523;stroke-width:1.06666672" />
        <path
           d="m 1665.4048,1020.6549 c -2.8544,0 -5.3269,-0.4672 -7.4251,-1.4016 -2.0981,-0.9333 -3.8336,-2.2474 -5.2042,-3.9434 -1.3728,-1.6939 -2.4107,-3.696 -3.1062,-6.0043 -0.6997,-2.3083 -1.0496,-4.8661 -1.0496,-7.6704 0,-3.50613 0.5248,-7.01227 1.5734,-10.5184 1.0496,-3.50613 2.5962,-6.6624 4.6421,-9.46667 2.0416,-2.80426 4.544,-5.0976 7.504,-6.88106 2.9557,-1.78134 6.3456,-2.67307 10.1664,-2.67307 2.7957,0 5.2565,0.4672 7.3835,1.4016 2.1226,0.93547 3.8709,2.2496 5.2458,3.94347 1.3707,1.696 2.4043,3.69813 3.104,6.00426 0.6976,2.3104 1.0496,4.86507 1.0496,7.6704 0,3.50614 -0.512,7.01227 -1.5338,10.51837 -1.023,3.5062 -2.5291,6.6624 -4.5184,9.4667 -1.9894,2.8064 -4.479,5.0997 -7.4646,6.8811 -2.9856,1.7813 -6.4416,2.673 -10.3669,2.673 z m 5.9712,-37.51677 c -1.7771,0 -3.3376,0.55574 -4.6816,1.66614 -1.3461,1.1104 -2.4747,2.512 -3.3899,4.20586 -0.9141,1.696 -1.6,3.54987 -2.0565,5.56694 -0.4587,2.01706 -0.688,3.93173 -0.688,5.74183 0,2.9814 0.4309,5.2747 1.2917,6.8811 0.8608,1.6085 2.4214,2.4107 4.6816,2.4107 1.775,0 3.3334,-0.5558 4.6795,-1.6662 1.344,-1.1082 2.4725,-2.5109 3.3899,-4.2058 0.912,-1.6939 1.6,-3.5499 2.0565,-5.56697 0.4565,-2.01706 0.6859,-3.9296 0.6859,-5.74186 0,-2.98134 -0.4288,-5.27254 -1.2896,-6.88107 -0.8608,-1.6064 -2.4235,-2.41067 -4.6795,-2.41067 z"
           id="path331"
           inkscape:connector-curvature="0"
           style="fill:#f9d523;stroke-width:1.06666672" />
        <path
           d="m 1698.4523,975.424 c 0.9141,-0.2912 1.8954,-0.6272 2.9461,-1.008 1.0496,-0.37867 2.2315,-0.7296 3.5499,-1.0496 1.3162,-0.32107 2.7957,-0.58347 4.4373,-0.78933 1.6416,-0.20374 3.5349,-0.30614 5.6896,-0.30614 2.5813,0 4.7211,0.34987 6.4149,1.05174 1.6939,0.69973 3.2395,1.75253 4.64,3.15413 1.9894,-1.22667 3.967,-2.23573 5.9318,-3.02293 1.9626,-0.78934 4.2624,-1.18294 6.8981,-1.18294 2.5291,0 4.6933,0.3648 6.496,1.09547 1.8027,0.73067 3.296,1.78133 4.4789,3.15413 1.183,1.37494 2.0438,3.01014 2.5814,4.91094 0.5376,1.8976 0.8085,3.9872 0.8085,6.26666 0,1.05174 -0.068,2.16214 -0.2016,3.3312 -0.1355,1.16907 -0.3371,2.33707 -0.6059,3.50614 l -5.488,24.89383 h -12.0224 l 5.327,-24.36903 c 0.16,-0.81707 0.3349,-1.7376 0.5226,-2.76054 0.1899,-1.0208 0.2838,-2.0288 0.2838,-3.02506 0,-1.63307 -0.3499,-3.05174 -1.0475,-4.2496 -0.6997,-1.19787 -2.0725,-1.7984 -4.1163,-1.7984 -1.1296,0 -2.2058,0.21866 -3.2266,0.65813 -1.023,0.43733 -1.9371,0.89173 -2.7435,1.35787 0.1088,0.46826 0.1621,0.90666 0.1621,1.31413 0,0.40747 0,0.78933 0,1.1392 0,1.05173 -0.068,2.16213 -0.2016,3.3312 -0.1354,1.16907 -0.337,2.33707 -0.6058,3.50613 l -5.4859,24.89387 h -12.0224 l 5.3248,-24.36907 c 0.1621,-0.81706 0.3349,-1.7376 0.5227,-2.76053 0.1898,-1.0208 0.2858,-2.0288 0.2858,-3.02507 0,-1.63306 -0.352,-3.05173 -1.0496,-4.2496 -0.6997,-1.19786 -2.0725,-1.7984 -4.1162,-1.7984 -0.8608,0 -1.5851,0.0437 -2.1792,0.1312 -0.592,0.0875 -1.2896,0.2208 -2.0982,0.39574 l -7.825,35.67463 h -12.0224 z"
           id="path333"
           inkscape:connector-curvature="0"
           style="fill:#f9d523;stroke-width:1.06666672" />
        <path
           d="m 1825.8635,982.3488 c 0,5.904 -0.8875,11.19147 -2.6624,15.86667 -1.775,4.67523 -4.3168,8.63573 -7.6246,11.87733 -3.3088,3.2437 -7.3312,5.7419 -12.0629,7.4955 -4.7349,1.7525 -10.0875,2.6293 -16.0587,2.6293 -2.2602,0 -4.8682,-0.1461 -7.8272,-0.4373 -2.96,-0.2934 -5.8101,-0.7606 -8.5546,-1.4038 l 12.992,-58.6421 c 3.0666,-0.64213 6.0106,-1.09547 8.8352,-1.35787 2.8245,-0.2624 5.3664,-0.3936 7.6266,-0.3936 3.9787,0 7.5435,0.58347 10.6891,1.75254 3.1477,1.16906 5.8101,2.8352 7.9893,4.99626 2.1771,2.16214 3.8336,4.73387 4.9622,7.71414 1.1306,2.97813 1.696,6.28266 1.696,9.90293 z m -40.1024,26.1227 c 0.5898,0.059 1.1957,0.1024 1.8122,0.1312 0.6187,0.031 1.4667,0.044 2.544,0.044 3.4955,0 6.656,-0.5835 9.4795,-1.7547 2.8267,-1.1669 5.2192,-2.848 7.1829,-5.04 1.9648,-2.18983 3.4838,-4.8789 4.5579,-8.06503 1.0741,-3.18614 1.6149,-6.76267 1.6149,-10.73707 0,-2.04587 -0.2442,-3.90187 -0.7274,-5.56693 -0.4832,-1.66507 -1.2768,-3.09547 -2.3787,-4.29547 -1.1019,-1.19573 -2.5291,-2.11627 -4.2773,-2.76053 -1.7483,-0.64427 -3.8603,-0.96427 -6.335,-0.96427 -1.6128,0 -3.2544,0.0896 -4.9205,0.26453 z"
           id="path335"
           inkscape:connector-curvature="0"
           style="fill:#f9d523;stroke-width:1.06666672" />
        <path
           d="m 1864.7861,999.53067 c -0.7541,3.33123 -0.9664,6.67733 -0.6453,10.03733 0.3253,3.36 0.9419,6.3541 1.8581,8.9856 l -10.7328,1.6651 c -0.3232,-0.7019 -0.6186,-1.3728 -0.8874,-2.0171 -0.271,-0.6421 -0.5398,-1.3728 -0.8086,-2.1899 -1.504,1.344 -3.1754,2.4544 -5.0016,3.3291 -1.8293,0.8768 -3.873,1.3141 -6.1333,1.3141 -2.6891,0 -4.9877,-0.512 -6.8981,-1.5338 -1.9104,-1.0219 -3.4688,-2.3958 -4.6816,-4.1184 -1.2086,-1.7248 -2.0854,-3.7398 -2.623,-6.0502 -0.5354,-2.3061 -0.8042,-4.7776 -0.8042,-7.4058 0,-4.0331 0.6581,-7.8315 1.9754,-11.3963 1.3184,-3.5648 3.1478,-6.6752 5.488,-9.33547 2.3414,-2.65813 5.0955,-4.7456 8.271,-6.26666 3.1754,-1.51894 6.6186,-2.27947 10.3296,-2.27947 0.4832,0 1.3312,0.0309 2.5418,0.0875 1.2107,0.0587 2.5942,0.18986 4.1547,0.3936 1.5605,0.20586 3.2021,0.54186 4.9227,1.008 1.7205,0.46826 3.36,1.1104 4.9226,1.9296 z m -8.3914,-16.13014 c -0.6998,-0.11626 -1.3312,-0.20373 -1.8955,-0.2624 -0.5643,-0.0587 -1.2501,-0.0875 -2.0587,-0.0875 -1.8293,0 -3.537,0.49813 -5.1232,1.48906 -1.5872,0.99414 -2.9749,2.29334 -4.1557,3.90187 -1.1829,1.60853 -2.112,3.4624 -2.7829,5.5648 -0.6752,2.10453 -1.0102,4.29547 -1.0102,6.57494 0,2.8064 0.431,5.0272 1.2918,6.6624 0.8608,1.6352 2.448,2.4544 4.7626,2.4544 1.2352,0 2.3499,-0.2624 3.3483,-0.7872 0.9941,-0.5269 2.0587,-1.4037 3.1872,-2.6314 0.1088,-1.4582 0.2816,-2.9942 0.5227,-4.6016 0.2442,-1.6064 0.4981,-3.08167 0.769,-4.42674 z"
           id="path337"
           inkscape:connector-curvature="0"
           style="fill:#f9d523;stroke-width:1.06666672" />
        <path
           d="m 1901.1232,973.3216 h -0.027 -0.9024 c -1.7226,6.19413 -3.5648,11.8624 -5.5274,17.00373 -1.9648,5.14347 -4.2358,9.81867 -6.8192,14.02457 -0.3232,-2.1024 -0.6187,-4.4683 -0.8875,-7.09977 -0.2709,-2.62933 -0.512,-5.3312 -0.7253,-8.1088 -0.065,-0.80213 -0.1067,-1.5936 -0.1643,-2.3936 -0.1419,-1.96693 -0.2859,-3.93493 -0.4021,-5.88906 -0.16,-2.7456 -0.271,-5.25867 -0.3211,-7.53707 h -12.3477 c 0.4309,9.1168 1.2224,17.29813 2.3808,24.544 1.1253,7.0475 2.3648,13.4187 3.7205,19.1392 -0.16,0.5184 -0.3189,1.04 -0.4917,1.5541 -0.463,1.3856 -7.1808,14.3691 -8.5792,15.7707 l 3.8538,0.5984 6.8768,1.0688 c 2.5814,-2.1045 15.8816,-26.1227 17.6566,-29.2789 1.7749,-3.1542 3.4954,-6.4704 5.1648,-9.94777 1.6661,-3.47733 3.2682,-7.14346 4.8021,-11.0016 1.5317,-3.856 3.0496,-8.0064 4.5579,-12.44586 h -11.8187 z"
           id="path339"
           inkscape:connector-curvature="0"
           style="fill:#f9d523;stroke-width:1.06666672" />
      </g>
      <g
         transform="translate(21.076204,-13.172627)"
         id="g341">
        <path
           d="m 1652.2112,955.44853 h -12.0416 l -3.9296,17.87307 c -0.8608,-0.2336 -1.7088,-0.40853 -2.5419,-0.52693 -0.8352,-0.11627 -1.7354,-0.17494 -2.7018,-0.17494 -3.7664,0 -7.2374,0.76054 -10.4107,2.27947 -3.1755,1.52107 -5.9168,3.5936 -8.2315,6.22293 -2.3125,2.63147 -4.1269,5.712 -5.4453,9.248 -1.3184,3.53707 -1.9776,7.29174 -1.9776,11.26507 0,2.6293 0.2837,5.0997 0.848,7.4059 0.5643,2.3104 1.4517,4.3274 2.6624,6.0501 1.2107,1.7227 2.7712,3.0816 4.6795,4.0747 1.9104,0.9941 4.2101,1.489 6.9002,1.489 2.2603,0 4.3168,-0.4373 6.1728,-1.3141 1.856,-0.8747 3.535,-1.9851 5.0443,-3.3291 0.2688,0.8171 0.5376,1.5478 0.8064,2.1899 0.2688,0.6443 0.5643,1.3141 0.8896,2.0171 l 10.7296,-1.6651 c -0.9141,-2.6315 -1.5339,-5.6245 -1.8539,-8.9856 -0.3232,-3.36 -0.1088,-6.7061 0.6454,-10.03733 z m -21.296,41.80267 c -0.2709,1.34613 -0.5248,2.8213 -0.7669,4.4267 -0.2422,1.6085 -0.4192,3.1434 -0.5248,4.6016 -1.1296,1.2266 -2.2059,2.1045 -3.2267,2.6314 -1.0229,0.5248 -2.1525,0.7872 -3.3899,0.7872 -2.3146,0 -3.9125,-0.8021 -4.8,-2.4106 -0.8896,-1.6064 -1.3333,-3.8123 -1.3333,-6.6187 0,-2.16 0.3253,-4.27947 0.9685,-6.35413 0.6454,-2.07467 1.5456,-3.9296 2.704,-5.56694 1.1563,-1.6352 2.5419,-2.9376 4.1558,-3.90186 1.6128,-0.96214 3.36,-1.44534 5.2437,-1.44534 0.592,0 1.0773,0 1.4539,0 0.3754,0 0.6837,0.0149 0.9269,0.0437 0.2421,0.0309 0.4832,0.0747 0.7253,0.13333 0.2443,0.0587 0.5248,0.11627 0.848,0.17493 z"
           id="path343"
           inkscape:connector-curvature="0"
           style="fill:#f9d523;stroke-width:1.06666672" />
      </g>
      <g
         transform="translate(21.076204,-13.172627)"
         id="g345">
        <path
           d="m 1255.728,949.73227 c 8.0683,-19.27254 30.4192,-28.27947 49.9232,-20.112 4.5525,1.90186 8.5355,4.5856 11.8837,7.808 -3.952,-4.38934 -8.9184,-8.00214 -14.7392,-10.4416 -20.8437,-8.72534 -44.7296,0.90026 -53.3525,21.4976 -4.6123,11.01866 -4.8757,24.688 -0.5205,35.59573 2.24,-1.6768 4.5642,-3.35573 6.9706,-5.02507 -3.8784,-9.0624 -4.2485,-19.568 -0.1653,-29.32266 z"
           id="path347"
           inkscape:connector-curvature="0"
           style="fill:none;stroke-width:1.06666672" />
        <path
           d="m 1291.2256,934.32427 c -17.5275,0 -31.7856,14.25813 -31.7856,31.7856 0,3.3312 0.5248,6.5376 1.4827,9.55626 16.128,-10.56 35.5552,-20.31253 57.5882,-25.87306 -0.011,0 -0.016,0 -0.022,-0.002 -5.5626,-9.25653 -15.7002,-15.46666 -27.2629,-15.46666 z"
           id="path349"
           inkscape:connector-curvature="0"
           style="fill:none;stroke-width:1.06666672" />
        <path
           d="m 1354.3424,955.1904 c 0.4171,2.43093 0.7147,4.9024 0.8501,7.41653 -6.8394,0.5184 -10.5706,-0.68586 -10.5706,-0.68586 -3.0144,-3.38987 -6.4288,-5.85174 -9.8891,-7.64374 -2.2827,0.24 -4.5931,0.58774 -6.9152,1.05387 -30.4896,6.10453 -56.2293,20.90027 -75.3792,35.4016 0.7104,1.05173 1.4581,2.07467 2.2859,3.02293 -3.8582,6.85017 -5.5296,10.93757 -8.4374,17.99997 -2.9365,-2.8917 -5.5946,-6.065 -7.9338,-9.473 -7.9691,7.0602 -14.0587,13.3962 -17.9915,17.7621 h 195.1019 c -5.9552,-16.4416 -24.2134,-57.10613 -61.1211,-64.8544 z"
           id="path351"
           inkscape:connector-curvature="0"
           style="fill:none;stroke-width:1.06666672" />
        <linearGradient
           id="linearGradient3285"
           gradientUnits="userSpaceOnUse"
           x1="1150.4614"
           y1="938.66803"
           x2="1270.4927"
           y2="938.66803">
          <stop
             offset="0"
             style="stop-color:#F7EC30"
             id="stop3287" />
          <stop
             offset="1"
             style="stop-color:#FAAE40"
             id="stop3289" />
        </linearGradient>
        <path
           d="m 1254.7232,993.7568 c -0.8267,-0.94827 -1.5755,-1.9712 -2.2859,-3.02293 -5.1946,3.93173 -9.8976,7.84 -14.0853,11.54983 2.3381,3.408 4.9973,6.5814 7.9339,9.4731 2.9088,-7.0624 4.5792,-11.1499 8.4373,-18 z"
           id="path358"
           inkscape:connector-curvature="0"
           style="fill:url(#linearGradient24732);stroke-width:1.06666672" />
        <path
           d="m 1249.4421,948.48427 c 8.623,-20.5984 32.5088,-30.22294 53.3526,-21.4976 5.8208,2.43946 10.7872,6.05226 14.7392,10.4416 -3.3483,-3.2224 -7.3312,-5.90614 -11.8838,-7.808 -19.504,-8.1664 -41.8538,0.83946 -49.9232,20.112 -4.0832,9.75466 -3.712,20.26026 0.1643,29.32266 1.6395,-1.13493 3.3152,-2.26666 5.0304,-3.38986 -0.9568,-3.01867 -1.4827,-6.22507 -1.4827,-9.55627 0,-17.52747 14.2582,-31.7856 31.7856,-31.7856 11.5627,0 21.7003,6.21013 27.263,15.46667 0.011,0.002 0.016,0.002 0.022,0.002 2.5792,-0.6496 5.1904,-1.25013 7.841,-1.78133 5.2299,-1.04747 10.4192,-1.57867 15.4208,-1.57867 3.7099,0 7.2694,0.2912 10.6902,0.82133 -8.0502,-26.1792 -32.4214,-45.21066 -61.2374,-45.21066 -35.3834,0 -64.0661,28.68373 -64.0661,64.06613 0,10.72107 2.6507,20.8128 7.3067,29.68747 4.321,-3.7792 9.1488,-7.74187 14.4565,-11.71627 -4.3552,-10.90773 -4.0917,-24.57707 0.5205,-35.59573 z"
           id="path360"
           inkscape:connector-curvature="0"
           style="fill:#f9d523;stroke-width:1.06666672" />
        <linearGradient
           id="linearGradient3293"
           gradientUnits="userSpaceOnUse"
           x1="1150.4614"
           y1="898.42291"
           x2="1270.4927"
           y2="898.42291">
          <stop
             offset="0"
             style="stop-color:#F7EC30"
             id="stop3295" />
          <stop
             offset="1"
             style="stop-color:#FAAE40"
             id="stop3297" />
        </linearGradient>
        <path
           d="m 1344.6219,961.92213 c 0,0 3.7312,1.20427 10.5706,0.68587 -0.1354,-2.51413 -0.433,-4.9856 -0.8501,-7.41653 -3.9733,-0.83307 -8.1579,-1.29174 -12.5696,-1.29174 -2.304,0 -4.6571,0.12907 -7.04,0.37867 3.4592,1.79093 6.8736,4.25387 9.8891,7.64373 z"
           id="path367"
           inkscape:connector-curvature="0"
           style="fill:url(#linearGradient24734);stroke-width:1.06666672" />
        <g
           id="g369">
          <path
             d="m 1354.3424,955.1904 c -3.9733,-0.83307 -8.1579,-1.29173 -12.5696,-1.29173 -2.304,0 -4.6571,0.12906 -7.04,0.37866 -2.2827,0.24 -4.5931,0.58774 -6.9152,1.05387 -30.4896,6.10453 -56.2293,20.90027 -75.3792,35.4016 -5.1947,3.93173 -9.8976,7.84 -14.0853,11.5499 -7.9691,7.0602 -14.0587,13.3962 -17.9915,17.7621 h 195.1019 c -5.9552,-16.4416 -24.2134,-57.10613 -61.1211,-64.8544 z"
             id="path371"
             inkscape:connector-curvature="0"
             style="fill:#39b54a;stroke-width:1.06666672" />
        </g>
      </g>
    </g>
  </g>
</svg>
